<?xml version="1.0" encoding="utf-8"?>
<svg viewBox="0 0 200 52" xmlns="http://www.w3.org/2000/svg">
  <path d="M 16.167 0 C 18.153 0 19.759 1.456 19.759 3.251 L 19.759 6.874 C 19.939 6.895 20.109 6.919 20.286 6.942 C 21.477 7.102 25.024 7.618 26.485 7.954 C 28.302 8.394 29.573 10.167 29.079 11.904 C 28.594 13.64 26.642 14.696 24.711 14.26 C 23.666 13.924 20.489 13.537 19.231 13.377 C 15.626 12.888 12.54 13.132 10.417 13.863 C 8.365 14.574 7.514 15.581 7.288 16.706 C 7.069 17.794 7.237 18.414 7.433 18.8 C 7.646 19.205 8.059 19.663 8.886 20.161 C 10.709 21.247 13.493 21.977 17.11 22.863 L 17.425 22.943 C 20.613 23.726 24.519 24.69 27.415 26.427 C 28.999 27.381 30.492 28.672 31.411 30.458 C 32.346 32.266 32.547 34.298 32.12 36.37 C 31.334 40.319 28.302 42.9 24.743 44.24 C 23.218 44.809 21.533 45.174 19.759 45.357 L 19.759 48.75 C 19.759 50.546 18.153 52 16.167 52 C 14.181 52 12.575 50.546 12.575 48.75 L 12.575 45.205 C 12.529 45.205 12.473 45.105 12.429 45.184 L 12.406 45.184 C 9.677 44.799 5.173 43.732 2.135 42.513 C 0.321 41.782 -0.495 39.863 0.31 38.217 C 1.116 36.581 3.24 35.841 4.95 36.573 C 7.399 37.518 11.26 38.442 13.493 38.756 C 17.088 39.244 20.04 38.959 22.039 38.228 C 23.936 37.528 24.799 36.512 25.048 35.293 C 25.261 34.208 25.103 33.588 24.902 33.201 C 24.689 32.795 24.272 32.338 23.452 31.841 C 21.623 30.753 18.839 30.022 15.225 29.138 L 14.909 29.058 C 11.722 28.276 7.812 27.31 4.912 25.573 C 3.329 24.618 1.845 23.329 0.924 21.541 C -0.013 19.734 -0.215 17.703 0.22 15.54 C 1.014 11.589 4.161 9.07 7.853 7.793 C 9.316 7.288 10.901 6.957 12.575 6.777 L 12.575 3.251 C 12.575 1.456 14.181 0 16.167 0 Z" style="paint-order: stroke; fill: rgb(24, 109, 0);"/>
  <path d="M 58.083 0 C 60.069 0 61.675 1.456 61.675 3.251 L 61.675 6.874 C 61.855 6.895 62.025 6.919 62.202 6.942 C 63.393 7.102 66.94 7.618 68.401 7.954 C 70.218 8.394 71.489 10.167 70.995 11.904 C 70.51 13.64 68.558 14.696 66.627 14.26 C 65.582 13.924 62.405 13.537 61.147 13.377 C 57.542 12.888 54.456 13.132 52.333 13.863 C 50.281 14.574 49.43 15.581 49.204 16.706 C 48.985 17.794 49.153 18.414 49.349 18.8 C 49.562 19.205 49.975 19.663 50.801 20.161 C 52.625 21.247 55.409 21.977 59.026 22.863 L 59.341 22.943 C 62.529 23.726 66.435 24.69 69.33 26.427 C 70.915 27.381 72.407 28.672 73.327 30.458 C 74.261 32.266 74.463 34.298 74.036 36.37 C 73.25 40.319 70.218 42.9 66.659 44.24 C 65.134 44.809 63.448 45.174 61.675 45.357 L 61.675 48.75 C 61.675 50.546 60.069 52 58.083 52 C 56.097 52 54.49 50.546 54.49 48.75 L 54.49 45.205 C 54.445 45.205 54.389 45.105 54.344 45.184 L 54.322 45.184 C 51.593 44.799 47.089 43.732 44.051 42.513 C 42.237 41.782 41.421 39.863 42.226 38.217 C 43.032 36.581 45.156 35.841 46.866 36.573 C 49.315 37.518 53.176 38.442 55.409 38.756 C 59.003 39.244 61.956 38.959 63.955 38.228 C 65.852 37.528 66.715 36.512 66.964 35.293 C 67.176 34.208 67.019 33.588 66.817 33.201 C 66.605 32.795 66.188 32.338 65.368 31.841 C 63.539 30.753 60.755 30.022 57.14 29.138 L 56.825 29.058 C 53.638 28.276 49.728 27.31 46.828 25.573 C 45.245 24.618 43.761 23.329 42.84 21.541 C 41.903 19.734 41.701 17.703 42.136 15.54 C 42.929 11.589 46.077 9.07 49.769 7.793 C 51.232 7.288 52.817 6.957 54.49 6.777 L 54.49 3.251 C 54.49 1.456 56.097 0 58.083 0 Z" style="paint-order: stroke; fill: rgb(166, 166, 166);"/>
  <path d="M 99.999 0 C 101.986 0 103.591 1.456 103.591 3.251 L 103.591 6.874 C 103.772 6.895 103.941 6.919 104.118 6.942 C 105.309 7.102 108.857 7.618 110.317 7.954 C 112.134 8.394 113.405 10.167 112.911 11.904 C 112.426 13.64 110.474 14.696 108.543 14.26 C 107.499 13.924 104.321 13.537 103.064 13.377 C 99.458 12.888 96.372 13.132 94.25 13.863 C 92.197 14.574 91.347 15.581 91.12 16.706 C 90.902 17.794 91.069 18.414 91.265 18.8 C 91.478 19.205 91.892 19.663 92.718 20.161 C 94.542 21.247 97.326 21.977 100.942 22.863 L 101.258 22.943 C 104.445 23.726 108.352 24.69 111.247 26.427 C 112.831 27.381 114.324 28.672 115.244 30.458 C 116.178 32.266 116.38 34.298 115.953 36.37 C 115.167 40.319 112.134 42.9 108.576 44.24 C 107.05 44.809 105.365 45.174 103.591 45.357 L 103.591 48.75 C 103.591 50.546 101.986 52 99.999 52 C 98.013 52 96.407 50.546 96.407 48.75 L 96.407 45.205 C 96.361 45.205 96.305 45.105 96.261 45.184 L 96.239 45.184 C 93.509 44.799 89.005 43.732 85.967 42.513 C 84.153 41.782 83.337 39.863 84.142 38.217 C 84.948 36.581 87.072 35.841 88.782 36.573 C 91.232 37.518 95.093 38.442 97.326 38.756 C 100.92 39.244 103.872 38.959 105.871 38.228 C 107.768 37.528 108.631 36.512 108.88 35.293 C 109.093 34.208 108.936 33.588 108.734 33.201 C 108.521 32.795 108.104 32.338 107.285 31.841 C 105.455 30.753 102.671 30.022 99.057 29.138 L 98.741 29.058 C 95.554 28.276 91.644 27.31 88.744 25.573 C 87.161 24.618 85.678 23.329 84.757 21.541 C 83.819 19.734 83.617 17.703 84.052 15.54 C 84.846 11.589 87.993 9.07 91.685 7.793 C 93.148 7.288 94.734 6.957 96.407 6.777 L 96.407 3.251 C 96.407 1.456 98.013 0 99.999 0 Z" style="paint-order: stroke; fill: rgb(166, 166, 166);"/>
  <path d="M 141.915 0 C 143.902 0 145.508 1.456 145.508 3.251 L 145.508 6.874 C 145.688 6.895 145.858 6.919 146.035 6.942 C 147.226 7.102 150.773 7.618 152.233 7.954 C 154.051 8.394 155.322 10.167 154.828 11.904 C 154.343 13.64 152.391 14.696 150.46 14.26 C 149.415 13.924 146.238 13.537 144.98 13.377 C 141.375 12.888 138.289 13.132 136.166 13.863 C 134.114 14.574 133.263 15.581 133.037 16.706 C 132.818 17.794 132.985 18.414 133.182 18.8 C 133.395 19.205 133.808 19.663 134.634 20.161 C 136.458 21.247 139.242 21.977 142.859 22.863 L 143.174 22.943 C 146.362 23.726 150.268 24.69 153.163 26.427 C 154.747 27.381 156.24 28.672 157.16 30.458 C 158.094 32.266 158.296 34.298 157.869 36.37 C 157.083 40.319 154.051 42.9 150.492 44.24 C 148.967 44.809 147.281 45.174 145.508 45.357 L 145.508 48.75 C 145.508 50.546 143.902 52 141.915 52 C 139.93 52 138.323 50.546 138.323 48.75 L 138.323 45.205 C 138.278 45.205 138.222 45.105 138.177 45.184 L 138.155 45.184 C 135.426 44.799 130.922 43.732 127.884 42.513 C 126.07 41.782 125.254 39.863 126.059 38.217 C 126.865 36.581 128.989 35.841 130.699 36.573 C 133.148 37.518 137.009 38.442 139.242 38.756 C 142.836 39.244 145.788 38.959 147.787 38.228 C 149.685 37.528 150.548 36.512 150.796 35.293 C 151.009 34.208 150.852 33.588 150.65 33.201 C 150.437 32.795 150.02 32.338 149.201 31.841 C 147.372 30.753 144.588 30.022 140.973 29.138 L 140.658 29.058 C 137.471 28.276 133.561 27.31 130.661 25.573 C 129.078 24.618 127.594 23.329 126.673 21.541 C 125.735 19.734 125.534 17.703 125.968 15.54 C 126.762 11.589 129.91 9.07 133.602 7.793 C 135.065 7.288 136.65 6.957 138.323 6.777 L 138.323 3.251 C 138.323 1.456 139.93 0 141.915 0 Z" style="paint-order: stroke; fill: rgb(166, 166, 166);"/>
  <path d="M 183.833 0 C 185.819 0 187.425 1.456 187.425 3.251 L 187.425 6.874 C 187.605 6.895 187.775 6.919 187.952 6.942 C 189.143 7.102 192.69 7.618 194.151 7.954 C 195.968 8.394 197.239 10.167 196.745 11.904 C 196.26 13.64 194.308 14.696 192.377 14.26 C 191.332 13.924 188.155 13.537 186.898 13.377 C 183.292 12.888 180.206 13.132 178.083 13.863 C 176.031 14.574 175.18 15.581 174.954 16.706 C 174.736 17.794 174.903 18.414 175.099 18.8 C 175.312 19.205 175.726 19.663 176.552 20.161 C 178.376 21.247 181.159 21.977 184.776 22.863 L 185.091 22.943 C 188.279 23.726 192.185 24.69 195.081 26.427 C 196.665 27.381 198.158 28.672 199.077 30.458 C 200.012 32.266 200.213 34.298 199.786 36.37 C 199 40.319 195.968 42.9 192.409 44.24 C 190.884 44.809 189.199 45.174 187.425 45.357 L 187.425 48.75 C 187.425 50.546 185.819 52 183.833 52 C 181.847 52 180.241 50.546 180.241 48.75 L 180.241 45.205 C 180.195 45.205 180.139 45.105 180.095 45.184 L 180.072 45.184 C 177.343 44.799 172.839 43.732 169.801 42.513 C 167.987 41.782 167.171 39.863 167.976 38.217 C 168.782 36.581 170.906 35.841 172.616 36.573 C 175.066 37.518 178.926 38.442 181.159 38.756 C 184.754 39.244 187.706 38.959 189.705 38.228 C 191.602 37.528 192.465 36.512 192.714 35.293 C 192.927 34.208 192.769 33.588 192.568 33.201 C 192.355 32.795 191.938 32.338 191.118 31.841 C 189.289 30.753 186.505 30.022 182.891 29.138 L 182.575 29.058 C 179.388 28.276 175.478 27.31 172.578 25.573 C 170.995 24.618 169.511 23.329 168.59 21.541 C 167.653 19.734 167.451 17.703 167.886 15.54 C 168.68 11.589 171.827 9.07 175.519 7.793 C 176.982 7.288 178.567 6.957 180.241 6.777 L 180.241 3.251 C 180.241 1.456 181.847 0 183.833 0 Z" style="paint-order: stroke; fill: rgb(166, 166, 166);"/>
</svg>